<svg xmlns="http://www.w3.org/2000/svg" xmlns:xlink="http://www.w3.org/1999/xlink" xmlns:inkscape="http://www.inkscape.org/namespaces/inkscape" version="1.1" width="198.425" height="198.425" viewBox="0 0 198.425 198.425">
<defs>
<clipPath id="clip_1">
<path transform="matrix(1,0,0,-1,0,198.425)" d="M0 198.425H198.425V0H0Z"/>
</clipPath>
</defs>
<g inkscape:groupmode="layer" inkscape:label="Layer 1">
<path transform="matrix(1,0,0,-1,12.9916,81.257907)" d="M0 0 1.524 3.954 16.677-1.886 15.152-5.841ZM-3.183 5.769 .256 4.443-1.285 .446-4.724 1.771Z" fill="#ff4d4d"/>
<path transform="matrix(1,0,0,-1,16.2326,73.1209)" d="M0 0 2.01 3.731 13.284-2.344 16.562 3.74 19.583 2.112 14.296-7.702Z" fill="#ff4d4d"/>
<path transform="matrix(1,0,0,-1,43.2474,61.4431)" d="M0 0-9.824-.523-4.084-5.11-6.73-8.421-19.415 1.717-16.769 5.028-11.317 .671-12.8 9.995-9.708 13.863-8.153 3.45 3.135 3.922Z" fill="#ff4d4d"/>
<path transform="matrix(1,0,0,-1,41.4027,40.693208)" d="M0 0 9.308 6.821 11.241 4.183 5.259-.201 7.084-2.691 12.694 1.421 14.614-1.199 9.003-5.31 10.991-8.023 16.974-3.639 18.907-6.277 9.598-13.098Z" fill="#ff4d4d"/>
<path transform="matrix(1,0,0,-1,54.3838,31.719803)" d="M0 0 3.786 1.906 9.546-9.532 15.718-6.424 17.261-9.489 7.305-14.503Z" fill="#ff4d4d"/>
<path transform="matrix(1,0,0,-1,68.1862,25.213196)" d="M0 0 11.028 3.402 11.991 .277 4.904-1.91 5.814-4.859 12.462-2.809 13.418-5.912 6.772-7.962 7.763-11.176 14.85-8.99 15.814-12.115 4.787-15.517Z" fill="#ff4d4d"/>
<g clip-path="url(#clip_1)">
<path transform="matrix(1,0,0,-1,88.8573,35.765)" d="M0 0C-1.324 .54-2.391 1.396-3.201 2.569-4.012 3.741-4.513 5.151-4.707 6.799-4.901 8.446-4.739 9.93-4.222 11.251-3.704 12.571-2.865 13.648-1.702 14.481-.54 15.313 .88 15.828 2.557 16.025 3.61 16.149 4.647 16.108 5.668 15.904 6.689 15.699 7.544 15.366 8.232 14.906L7.277 11.779C5.841 12.553 4.429 12.859 3.042 12.696 1.73 12.542 .776 12.012 .179 11.107-.419 10.201-.622 8.933-.429 7.301-.238 5.67 .254 4.479 1.046 3.729 1.837 2.98 2.888 2.682 4.201 2.836 5.588 2.999 6.891 3.624 8.108 4.71L9.762 1.889C9.199 1.282 8.445 .76 7.499 .324 6.553-.111 5.554-.391 4.502-.515 2.823-.712 1.323-.54 0 0" fill="#ff4d4d"/>
<path transform="matrix(1,0,0,-1,104.5975,22.96611)" d="M0 0-4.85 .311-4.63 3.737 9.344 2.84 9.125-.585 4.277-.274 3.455-13.054-.821-12.781Z" fill="#ff4d4d"/>
<path transform="matrix(1,0,0,-1,125.1618,29.427506)" d="M0 0C.467 .179 .784 .589 .95 1.228 1.12 1.882 1.046 2.405 .728 2.797 .409 3.19-.204 3.504-1.11 3.739L-3.963 4.482-4.915 .826-2.06 .083C-1.154-.152-.468-.18 0 0M2.897-10.774-1.606-9.602-3.021-3.88C-3.212-3.211-3.678-2.78-4.422-2.587L-5.67-2.262-7.202-8.147-11.236-7.097-7.147 8.619 .344 6.67C2.245 6.175 3.569 5.39 4.312 4.316 5.056 3.242 5.225 1.925 4.819 .364 4.509-.825 3.921-1.747 3.053-2.401 2.183-3.055 1.118-3.37-.144-3.343 .712-3.771 1.28-4.546 1.561-5.666Z" fill="#ff4d4d"/>
<path transform="matrix(1,0,0,-1,165.7868,45.325807)" d="M0 0-10.318-12.54-12.737-10.55-12.566 1.331-18.464-5.838-21.505-3.335-11.188 9.205-8.805 7.244-8.957-4.652-3.06 2.517Z" fill="#ff4d4d"/>
<path transform="matrix(1,0,0,-1,169.0202,48.9617)" d="M0 0 2.83-3.155-9.26-13.996-12.089-10.841Z" fill="#ff4d4d"/>
<path transform="matrix(1,0,0,-1,164.0811,67.0797)" d="M0 0C-.123 1.424 .152 2.765 .824 4.021 1.498 5.277 2.523 6.368 3.9 7.292 5.277 8.216 6.671 8.75 8.082 8.892 9.494 9.035 10.835 8.78 12.107 8.125 13.377 7.472 14.483 6.444 15.425 5.04 16.017 4.161 16.453 3.22 16.738 2.218 17.021 1.216 17.116 .304 17.021-.519L13.803-1.097C13.836 .534 13.464 1.93 12.685 3.09 11.948 4.187 11.042 4.794 9.963 4.912 8.886 5.03 7.665 4.631 6.301 3.715 4.936 2.799 4.101 1.819 3.796 .772 3.491-.274 3.706-1.346 4.442-2.443 5.22-3.602 6.371-4.476 7.893-5.064L6.138-7.823C5.342-7.6 4.533-7.166 3.714-6.524 2.894-5.881 2.189-5.12 1.598-4.24 .657-2.838 .125-1.424 0 0" fill="#ff4d4d"/>
<path transform="matrix(1,0,0,-1,170.5548,78.8219)" d="M0 0C-.17 1.214-.153 2.265 .051 3.155L3.321 3.127C3.177 2.214 3.161 1.296 3.272 .374 3.383-.547 3.617-1.424 3.973-2.257 4.335-3.104 4.73-3.7 5.153-4.045 5.576-4.39 5.999-4.471 6.423-4.29 6.804-4.127 7.028-3.793 7.095-3.287 7.164-2.782 7.075-1.914 6.831-.682 6.53 .843 6.414 2.088 6.485 3.053 6.555 4.02 6.798 4.779 7.212 5.333 7.626 5.886 8.236 6.335 9.041 6.68 9.958 7.073 10.89 7.168 11.839 6.964 12.786 6.76 13.669 6.278 14.488 5.518 15.306 4.757 15.976 3.77 16.496 2.557 16.954 1.484 17.249 .378 17.377-.762 17.506-1.901 17.451-2.856 17.215-3.626L13.954-3.62C14.306-1.865 14.16-.24 13.518 1.256 13.21 1.976 12.826 2.496 12.363 2.815 11.9 3.135 11.443 3.198 10.991 3.005 10.723 2.89 10.537 2.719 10.434 2.491 10.331 2.263 10.289 1.902 10.308 1.409 10.327 .917 10.431 .218 10.619-.688 10.902-2.17 11.002-3.389 10.919-4.343 10.835-5.298 10.587-6.056 10.175-6.616 9.765-7.177 9.177-7.62 8.415-7.947 6.947-8.576 5.558-8.502 4.249-7.727 2.939-6.951 1.847-5.54 .969-3.494 .491-2.379 .168-1.214 0 0" fill="#ff4d4d"/>
<path transform="matrix(1,0,0,-1,145.0542,30.01181)" d="M0 0-1.871-4.087C-1.209-5.302-1.132-6.853-1.773-8.252-2.83-10.563-5.465-11.637-7.645-10.64-9.824-9.642-10.72-6.952-9.663-4.641-9.017-3.229-7.793-2.274-6.441-1.981L-4.57 2.107C-8.195 2.574-11.872 .637-13.487-2.89-15.469-7.221-13.611-12.323-9.315-14.289-5.02-16.255 .069-14.332 2.051-10.002 3.666-6.474 2.723-2.438 0 0" fill="#ff4d4d"/>
<path transform="matrix(1,0,0,-1,143.4822,25.714997)" d="M0 0C-.322 0-.631-.184-.774-.497L-4.643-8.95C-4.838-9.377-4.65-9.882-4.223-10.077L-3.602-10.362C-3.487-10.414-3.367-10.439-3.249-10.439-2.926-10.439-2.618-10.255-2.475-9.942L1.394-1.489C1.59-1.062 1.402-.557 .975-.362L.353-.077C.239-.025 .118 0 0 0" fill="#ff4d4d"/>
<path transform="matrix(1,0,0,-1,166.5491,115.39381)" d="M0 0C0-18.442-7.668-35.111-20.005-47.006-22.506-49.431-25.219-51.646-28.075-53.62-28.813-54.138-29.561-54.636-30.318-55.116L-47.802-37.316C-47.802-37.316-47.802-37.325-47.812-37.325L-77.488-6.978V-31.392H-93.054V43.929C-107.605 34.718-117.286 18.471-117.286 0-117.286-28.689-93.946-52.029-65.266-52.029-58.48-52.029-53.007-51.329-47.744-49.355L-37.977-59.304H-37.987L-31.459-65.957C-33.807-67.049-36.232-67.998-38.725-68.794L-40.067-69.158-46.508-62.544C-52.451-64.327-58.748-65.286-65.266-65.286-101.259-65.286-130.552-36.002-130.552 0-130.552 26.062-115.187 48.607-93.054 59.065-87.811 61.547-82.184 63.349-76.27 64.356V7.668L-51.722 32.235-29.379 29.676-60.704-.623-26.158-35.034C-16.228-25.564-13.266-14.781-13.266 0-13.266 28.679-36.587 52.019-65.266 52.019-66.148 52.019-67.02 52-67.883 51.952V75.302H-59.486V65.017C-26.187 62.084 0 34.047 0 0" fill="#ff4d4d"/>
</g>
</g>
</svg>
